<svg width="253" height="215" viewBox="0 0 253 215" fill="none" xmlns="http://www.w3.org/2000/svg">
<g clip-path="url(#clip0)">
<path opacity="0.24" d="M53.5782 79.2677C53.5782 42.1223 78.1068 10.6776 111.919 0H0.561646L54.5793 92.0265C53.8967 87.864 53.5782 83.6111 53.5782 79.2677Z" fill="white"/>
<path opacity="0.24" d="M126.709 155.956C110.645 155.956 95.8095 150.708 83.7954 141.886L126.709 215L169.623 141.886C157.609 150.708 142.773 155.956 126.709 155.956Z" fill="white"/>
<path opacity="0.24" d="M252.857 0C252.857 0 155.607 0 153.604 0C97.0837 0 83.5679 43.6606 83.5679 64.1562C83.5679 73.3407 85.5247 82.0728 89.0288 89.9905C89.5749 91.0764 90.121 92.117 90.6216 93.1576C97.3567 105.328 110.144 113.698 124.98 114.287C125.572 114.332 126.118 114.332 126.709 114.332C127.255 114.332 127.756 114.332 128.256 114.287C144.366 113.472 157.154 100.261 157.154 84.0183C157.154 67.3232 143.547 53.75 126.755 53.7048C127.301 53.2071 127.892 52.7094 128.439 52.2117C135.947 45.8775 145.686 42.0318 156.335 42.0318C180.135 42.0318 199.476 61.2153 199.476 84.9232C199.476 87.3211 199.294 89.6286 198.885 91.8908L252.857 0Z" fill="white"/>
</g>
<defs>
<clipPath id="clip0">
<rect width="253" height="215" fill="white"/>
</clipPath>
</defs>
</svg>
